<?xml version="1.0" encoding="utf-8"?>
<!-- Generator: Adobe Illustrator 18.1.1, SVG Export Plug-In . SVG Version: 6.00 Build 0)  -->
<svg version="1.1" id="Layer_1" xmlns="http://www.w3.org/2000/svg" xmlns:xlink="http://www.w3.org/1999/xlink" x="0px" y="0px"
	 viewBox="0 0 150 108" style="enable-background:new 0 0 150 108;" xml:space="preserve">
<style type="text/css">
	.st0{fill:#95ca61;}
</style>
<g id="_x39_fcmY0_1_">
	<g>
		<path class="st0" d="M0,72c0-8.667,0-17.333,0-26c2.074-3.006,4.226-5.946,7.771-8.01c-1.447-1.003-2.421-1.624-3.336-2.324
			c-1.725-1.32-3.009-2.926-1.374-5.033c1.605-2.07,3.425-1.298,5.229-0.012c1.483,1.058,3.156,1.848,4.645,2.898
			c2.378,1.677,3.626,1.018,4.755-1.578c2.581-5.935,5.773-11.62,8.1-17.645C28.626,6.952,33.215,1.881,41,0c22.667,0,45.333,0,68,0
			c7.995,1.917,12.624,7.222,15.321,14.746c1.336,3.726,3.253,7.245,4.95,10.838c1.411,2.987,2.154,7.246,4.52,8.574
			c2.745,1.54,5.678-2.166,8.488-3.712c1.667-0.918,3.52-1.299,4.777,0.765c1.081,1.775,0.199,3.099-1.101,4.358
			c-1.113,1.078-2.973,1.327-3.554,3.162c3.772,1.673,5.877,4.8,7.6,8.27c0,8.333,0,16.667,0,25
			c-2.326,5.534-5.139,10.68-10.806,13.546c-1.411,0.714-1.616,1.981-1.551,3.354c0.474,9.958-4.276,16.176-13.643,19.101
			c-1.333,0-2.667,0-4,0c-8.653-2.649-14.033-7.919-13.851-17.517c0.038-2.02-0.843-2.53-2.678-2.527
			c-18.968,0.037-37.936,0.037-56.904-0.001c-1.84-0.004-2.694,0.514-2.672,2.529C43.994,100.037,38.68,105.372,30,108
			c-1.333,0-2.667,0-4,0c-9.327-2.977-14.239-9.062-13.501-19.144c0.103-1.408-0.289-2.592-1.678-3.296
			C5.157,82.688,2.337,77.534,0,72z M74.501,81.751c17.473,0,34.947,0.051,52.42-0.018c11.36-0.045,16.884-5.603,16.959-16.834
			c0.027-3.999,0.034-7.998-0.003-11.996c-0.069-7.467-6.449-12.161-13.408-9.735c-10.589,3.692-21.559,5.649-32.642,6.674
			c-27.062,2.503-53.839,1.335-79.945-7.237c-5.102-1.675-11.476,2.991-11.673,8.3c-0.161,4.326-0.042,8.663-0.039,12.995
			c0.01,12.656,5.182,17.83,17.911,17.846C40.888,81.768,57.694,81.752,74.501,81.751z M75.375,6.813
			c-10.164,0-20.335,0.216-30.491-0.08c-6.217-0.181-9.953,2.408-12.316,8.01c-2.645,6.27-5.465,12.495-8.693,18.478
			c-2.016,3.737-0.634,4.736,2.733,5.625c13.585,3.586,27.435,5.233,41.427,5.708c18.717,0.636,37.223-1.004,55.416-5.671
			c3.138-0.805,4.484-1.802,2.652-5.352c-3.349-6.488-6.211-13.229-9.227-19.886c-2.156-4.76-5.655-6.993-11.009-6.889
			C95.706,6.954,85.539,6.814,75.375,6.813z M28.206,87.984c-2.33,0-4.66,0.013-6.989-0.005c-1.293-0.01-2.036,0.293-2.325,1.847
			c-0.82,4.407,1.842,9.459,6.01,10.93c4.539,1.601,9.868-0.656,11.737-4.971c2.437-5.627,1.059-7.807-4.938-7.813
			C30.536,87.97,29.371,87.971,28.206,87.984z M121.92,87.971c0,0.005,0,0.011,0,0.016c-2.325,0-4.65,0.009-6.974-0.004
			c-1.309-0.007-2.024,0.385-2.313,1.895c-0.876,4.572,2.114,9.815,6.508,11.038c4.833,1.345,10.164-1.433,11.637-6.063
			c1.637-5.148,0.42-6.867-4.872-6.881C124.577,87.969,123.249,87.971,121.92,87.971z"/>
		<path class="st0" d="M74.569,69.065c-7.643-0.001-15.285,0-22.928-0.002c-2.231-0.001-4.627,0.038-4.575-3.105
			c0.052-3.142,2.484-2.988,4.688-2.988c15.451-0.001,30.902-0.004,46.354,0.004c2.159,0.001,4.691-0.283,4.815,2.849
			c0.139,3.517-2.599,3.23-4.928,3.236C90.187,69.078,82.378,69.066,74.569,69.065z"/>
		<path class="st0" d="M33.974,63.163c0.056,5.152-4.293,9.601-9.375,9.591c-4.981-0.01-9.562-4.665-9.468-9.62
			c0.096-5.01,4.169-9.044,9.24-9.151C29.685,53.871,33.918,57.917,33.974,63.163z M27.68,63.336c-0.299-1.744-1.241-3.07-3.14-3.08
			c-1.673-0.009-2.701,1.102-2.755,2.815c-0.063,1.965,0.92,3.037,2.958,3.042C26.577,66.118,27.283,64.94,27.68,63.336z"/>
		<path class="st0" d="M133.975,63.192c0.042,5.153-4.325,9.595-9.403,9.565c-4.986-0.03-9.552-4.698-9.439-9.65
			c0.115-5.016,4.19-9.028,9.267-9.124C129.702,53.883,133.932,57.952,133.975,63.192z M124.433,60.177
			c-1.651,0.392-2.691,1.31-2.66,3.044c0.036,1.988,1.107,2.97,3.12,2.881c1.822-0.081,2.73-1.286,2.694-2.852
			C127.545,61.402,126.259,60.377,124.433,60.177z"/>
		<path class="st0" d="M59.645,13.236c-0.056,1.646-1.113,2.695-2.207,3.726c-5.551,5.234-11.109,10.461-16.642,15.714
			c-1.74,1.652-3.719,2.67-5.589,0.628c-1.729-1.888-0.478-3.657,1.095-5.137c5.798-5.456,11.574-10.935,17.383-16.378
			c1.09-1.021,2.243-2.018,3.958-1.215C58.808,11.118,59.387,12.038,59.645,13.236z"/>
		<path class="st0" d="M37.384,22.443c-2.447-0.532-3.962-2.103-2.405-4.523c1.974-3.066,4.922-5.461,8.099-7.172
			c2.521-1.357,4.108,0.21,4.045,3.017C47.079,15.715,39.507,22.451,37.384,22.443z"/>
	</g>
</g>
<g>
</g>
<g>
</g>
<g>
</g>
<g>
</g>
<g>
</g>
<g>
</g>
</svg>
