<?xml version="1.0" encoding="utf-8"?>
<!-- Generator: Adobe Illustrator 18.1.1, SVG Export Plug-In . SVG Version: 6.00 Build 0)  -->
<svg version="1.1" id="Layer_1" xmlns="http://www.w3.org/2000/svg" xmlns:xlink="http://www.w3.org/1999/xlink" x="0px" y="0px"
	 viewBox="0 0 144.483 144.483" style="enable-background:new 0 0 144.483 144.483;" xml:space="preserve">
<style type="text/css">
.st0{fill:#95ca61;}
</style>
<g id="UlyVXz_1_">
	<g>
		<path class="st0" d="M144.483,40c-1.805,2.284-4.377,3.481-6.852,4.801c-11.522,6.142-23.055,12.264-36.137,19.219
			c2.432,1.728,4.295,2.665,5.657,4.083c8.912,9.281,7.251,21.297-4.057,27.515c-12.504,6.875-25.218,13.369-37.874,19.966
			C46.99,125.086,28.73,134.531,10.483,144c-3.333,0-7.967,1.301-9.634-0.366c-1.667-1.667-0.366-6.301-0.366-9.634
			c15.88-30.44,31.692-60.916,47.67-91.304c6.866-13.058,18.745-14.712,29.321-4.372c1.056,1.032,2.152,2.023,3.63,3.41
			c6.386-11.985,12.604-23.65,18.818-35.318c1.244-2.336,2.409-4.726,4.56-6.416c1.333,0,2.667,0,4,0
			c1.559,1.919,3.142,3.831,3.432,6.422c0.596,5.33,3.484,8.157,8.881,8.85c2.594,0.333,6.162,1.367,6.598,3.822
			c1.715,9.655,8.714,13.526,16.626,16.724c0.154,0.062,0.309,0.121,0.463,0.181C144.483,37.333,144.483,38.667,144.483,40z
			 M56.267,111.262c9.992-4.051,19.099-9.808,29.704-15.057c-5.14-4.891-9.803-9.374-14.523-13.798
			c-2.013-1.887-3.5-4.145-1.32-6.436c2.431-2.555,4.777-0.889,6.812,1.192c3.375,3.453,6.819,6.839,10.234,10.253
			c5.818,5.816,5.818,5.816,12.714,1.475c6.268-3.946,7.449-9.727,2.369-14.998C91.86,63.104,81.154,52.611,70.48,42.092
			c-2.173-2.141-4.929-3.513-8.158-2.81c-2.345,0.511-3.751,1.385-1.231,3.786c4.46,4.248,8.734,8.691,13.107,13.032
			c1.911,1.897,3.533,3.975,1.067,6.384c-2.422,2.366-4.542,0.771-6.427-1.109c-3.655-3.646-7.419-7.191-10.916-10.983
			c-2.44-2.646-4.005-3.645-5.782,0.648c-1.707,4.125-3.992,8.028-6.236,11.906c-1.189,2.055-1.083,3.431,0.727,5.077
			c3.2,2.909,6.169,6.072,9.228,9.135c1.958,1.96,3.1,4.211,0.793,6.494c-2.21,2.187-4.283,0.84-6.018-0.993
			c-3.085-3.26-6.124-6.564-9.58-10.277c-3.822,7.246-7.016,13.818-10.693,20.108c-2.845,4.867-5.311,9.172,1.151,13.209
			c1.854,1.159,1.995,3.567,0.421,5.294c-1.782,1.953-3.854,1.492-5.736-0.112c-0.379-0.323-0.765-0.656-1.07-1.046
			c-1.755-2.245-2.898-1.964-4.158,0.602c-2.635,5.364-5.608,10.562-8.284,15.907c-1.508,3.012-3.615,5.81-4.362,9.877
			c4.057-0.87,6.893-2.922,9.919-4.456c6.109-3.098,6.11-3.187,2.071-8.36c-1.413-1.81-1.852-3.684-0.241-5.377
			c1.846-1.941,3.912-1.379,5.71,0.299c1.46,1.363,2.868,2.784,4.261,4.216c1.107,1.138,2.175,2.011,3.888,1.007
			c7.398-4.337,15.528-7.355,22.503-12.459L56.267,111.262z M99.276,41.386c0.435,0.387,0.871,0.773,1.306,1.16
			c4.466-4.689,8.886-9.422,13.431-14.032c1.026-1.04,2.225-3.327,3.98-1.615c1.917,1.87-0.24,3.256-1.482,4.466
			c-4.687,4.569-9.431,9.08-14.153,13.613c0.31,0.364,0.621,0.728,0.931,1.092c4.91-3.267,9.794-6.574,14.747-9.774
			c1.294-0.836,2.989-2.627,4.332-0.787c1.696,2.323-1.024,3.069-2.346,3.967c-7.291,4.947-14.671,9.761-21.987,14.671
			c-0.747,0.501-2.057,1.021-1.497,2.218c0.515,1.101,1.722,0.82,2.609,0.35c10.791-5.714,21.565-11.462,33.248-17.683
			c-6.659-2.266-8.987-6.767-9.636-12.351c-0.267-2.294-1.345-3.548-3.624-4.063c-5.853-1.322-11.454-3.109-13.635-10.658
			C99.342,23.589,93.85,34.014,88.288,44.401c-0.872,1.628-1.57,3.364,0.385,4.273c1.961,0.912,2.264-1.447,2.957-2.512
			c4.805-7.382,9.485-14.846,14.2-22.286c0.816-1.288,1.678-2.862,3.46-1.744c1.964,1.232,0.399,2.668-0.304,3.812
			C105.803,31.124,102.522,36.244,99.276,41.386z"/>
		<path class="st0" d="M56.435,111.088c-2.397,0.057-4.403-0.562-6.152-2.447c-3.374-3.637-6.968-7.07-10.498-10.561
			c-1.871-1.851-3.655-3.922-1.32-6.344c2.535-2.63,4.74-0.811,6.729,1.203c3.255,3.297,6.407,6.716,9.867,9.786
			c2.984,2.648,3.621,5.284,1.21,8.533C56.267,111.262,56.435,111.088,56.435,111.088z"/>
	</g>
</g>
<g>
</g>
<g>
</g>
<g>
</g>
<g>
</g>
<g>
</g>
<g>
</g>
</svg>
