<?xml version="1.0" encoding="utf-8"?>
<!-- Generator: Adobe Illustrator 18.1.1, SVG Export Plug-In . SVG Version: 6.00 Build 0)  -->
<svg version="1.1" id="Layer_1" xmlns="http://www.w3.org/2000/svg" xmlns:xlink="http://www.w3.org/1999/xlink" x="0px" y="0px"
	 viewBox="0 0 174.897 41.828" style="enable-background:new 0 0 174.897 41.828;" xml:space="preserve">
<style type="text/css">
.st0{fill:#ffffff;}
</style>
<g>
	<path class="st0" d="M174.884,30.851c0.17,1.885-1.322,3.918-4.237,4.729c-2.493,0.693-4.464,0.989-5.155-2.891
		c-1.21-6.793-5.086-10.049-10.481-10.121c-5.573-0.074-10.438,3.635-11.611,9.686c-0.6,3.097-1.663,4.02-4.746,3.983
		c-13.311-0.156-26.625-0.121-39.937-0.024c-2.88,0.021-4.398-0.382-4.724-3.895c-0.562-6.055-5.315-10.091-10.98-10.264
		c-5.146-0.157-9.005,3.247-10.841,9.259c-0.364,1.191,0.589,3.417-1.846,3.418c-1.946,0-3.614-0.899-4.431-2.728
		c-1.188-2.661-2.085-5.899,0.164-7.988C77.575,13.319,89.675,3.551,105.913,0.805c14.963-2.53,28.383,0.934,40.405,9.936
		c2.612,1.956,5.167,3.373,8.463,3.626c8.23,0.632,14.165,5.098,18.941,11.531C174.62,27.109,174.691,28.296,174.884,30.851z
		 M124.698,14.539c0,0.068,0,0.136,0,0.203c3.154,0,6.319,0.15,9.459-0.063c1.569-0.107,3.889,1.221,4.562-1.495
		c0.593-2.392-0.459-4.084-2.558-5.359c-6.93-4.211-14.457-5.585-22.439-4.973c-1.163,0.089-2.172,0.14-2.689,1.613
		c-2.16,6.161,0.384,10.069,6.695,10.074C120.051,14.54,122.374,14.539,124.698,14.539z"/>
	<path class="st0" d="M83.027,24.243c4.95,0.06,8.88,3.938,8.89,8.771c0.01,4.794-3.956,8.739-8.859,8.813c-5.043,0.076-9.349-4.146-9.204-9.026
		C73.995,28.049,78.138,24.184,83.027,24.243z"/>
	<path class="st0" d="M154.398,24.233c4.876,0.065,8.967,4.063,8.991,8.788c0.025,4.902-4.372,8.994-9.445,8.79
		c-4.875-0.196-8.909-4.337-8.768-9.001C145.316,28.129,149.574,24.169,154.398,24.233z"/>
	<path class="st0" d="M40.33,11.501c-7.321,0.001-14.643,0.026-21.964-0.024c-1.22-0.008-3.062,0.5-3.223-1.388
		c-0.204-2.404,1.901-1.848,3.243-1.852c14.476-0.044,28.952-0.039,43.428-0.004c1.213,0.003,2.984-0.422,2.971,1.632
		c-0.012,2.044-1.78,1.603-2.992,1.611C54.64,11.524,47.484,11.5,40.33,11.501z"/>
	<path class="st0" d="M24.822,21.995c7.158,0,14.316-0.04,21.474,0.037c1.291,0.014,3.422-0.779,3.367,1.664
		c-0.045,2.009-1.925,1.435-3.101,1.439c-14.482,0.045-28.965,0.046-43.447,0c-1.173-0.004-3.05,0.586-3.112-1.423
		c-0.076-2.455,2.057-1.666,3.346-1.679C10.505,21.955,17.664,21.995,24.822,21.995z"/>
	<path class="st0" d="M32.468,35.866c7.144,0,14.289-0.045,21.433,0.042c1.272,0.016,3.505-0.839,3.412,1.559
		c-0.087,2.248-2.255,1.456-3.56,1.461c-14.122,0.06-28.245,0.062-42.368-0.005c-1.292-0.006-3.517,0.845-3.609-1.355
		c-0.116-2.774,2.397-1.623,3.757-1.647C18.51,35.8,25.489,35.866,32.468,35.866z"/>
</g>
</svg>
