<?xml version="1.0" encoding="utf-8"?>
<!-- Generator: Adobe Illustrator 18.1.1, SVG Export Plug-In . SVG Version: 6.00 Build 0)  -->
<svg version="1.1" id="Layer_1" xmlns="http://www.w3.org/2000/svg" xmlns:xlink="http://www.w3.org/1999/xlink" x="0px" y="0px"
	 viewBox="0 0 132.08 135.096" style="enable-background:new 0 0 132.08 135.096;" xml:space="preserve">
<style type="text/css">
	.st0{fill:#95ca61;}
</style>
<g id="AWrBRz_1_">
	<g>
		<path class="st0" d="M82.9,117.024c2.778,2.354,5.713,4.548,8.291,7.104c2.769,2.746,2.9,6.046,0.156,8.86
			c-2.752,2.822-6.219,2.752-8.941,0.139c-6.842-6.567-13.504-13.33-20.039-20.203c-2.64-2.776-2.631-6.207,0.071-8.99
			c6.492-6.687,13.09-13.276,19.825-19.718c2.891-2.765,6.487-3.089,9.324-0.021c2.799,3.027,2.244,6.383-0.656,9.284
			c-2.644,2.645-5.309,5.268-8.976,8.904c11.926,0,22.333,0.186,32.727-0.09c4.26-0.113,5.637-2.965,3.761-7.049
			c-1.799-3.917-3.937-7.679-5.971-11.486c-2.034-3.807-1.664-7.085,2.203-9.412c3.318-1.996,6.766-0.716,9.042,3.345
			c2.03,3.621,3.941,7.314,5.789,11.032c6.8,13.687-0.367,25.856-15.693,26.363c-8.48,0.281-16.977,0.048-25.467,0.071
			c-1.462,0.004-2.923,0.126-4.384,0.194C83.609,115.909,83.254,116.466,82.9,117.024z"/>
		<path class="st0" d="M31.395,67.376c-6.103,10.215-11.688,19.179-16.842,28.385c-1.98,3.536-0.197,6.19,4.023,6.466
			c4.643,0.304,9.319,0.133,13.981,0.129c4.185-0.003,6.765,1.959,6.798,6.209c0.033,4.304-2.65,6.227-6.773,6.257
			c-4.828,0.035-9.664,0.169-14.483-0.043C4.087,114.162-3.155,101.76,3.47,89.34c4.219-7.909,9.121-15.454,13.706-23.168
			c0.815-1.371,1.579-2.774,2.805-4.936c-4.401,1.009-7.941,1.723-11.425,2.645c-4.148,1.099-7.11-0.517-8.229-4.324
			c-1.156-3.933,0.806-6.885,4.828-7.925c8.995-2.327,18.019-4.546,27.061-6.686c3.808-0.901,6.766,0.66,7.777,4.387
			c2.518,9.283,4.848,18.625,6.947,28.011c0.836,3.738-0.962,6.611-4.856,7.451c-3.886,0.838-6.443-1.065-7.51-4.774
			C33.522,76.362,32.704,72.633,31.395,67.376z"/>
		<path class="st0" d="M98.505,36.237c1.194-4.689,2.029-8.206,2.992-11.688c1.098-3.972,3.73-5.96,7.842-5.041
			c4.289,0.958,5.454,4.259,4.56,8.073c-2.084,8.888-4.364,17.734-6.775,26.54c-1.278,4.667-3.982,6.085-8.704,4.92
			c-8.541-2.108-17.072-4.258-25.58-6.495c-4.491-1.181-6.538-4.174-5.667-7.879c0.857-3.643,4.172-5.337,8.641-4.357
			c3.533,0.775,7.053,1.615,11.879,2.725c-6.206-10.164-11.578-19.427-17.456-28.357c-2.251-3.42-5.228-2.139-7.203,0.909
			c-2.35,3.627-4.538,7.361-6.753,11.074c-2.194,3.677-5.249,5.151-9.228,3.194c-3.512-1.727-4.093-5.724-1.602-9.975
			c2.353-4.016,4.703-8.05,7.335-11.883c7.299-10.631,21.11-10.673,28.419-0.055c3.013,4.377,5.63,9.027,8.399,13.57
			C92.362,26.033,95.085,30.575,98.505,36.237z"/>
	</g>
</g>
<g>
</g>
<g>
</g>
<g>
</g>
<g>
</g>
<g>
</g>
<g>
</g>
</svg>
